<?xml version="1.0" encoding="UTF-8" standalone="no"?><!DOCTYPE svg PUBLIC "-//W3C//DTD SVG 1.1//EN" "http://www.w3.org/Graphics/SVG/1.1/DTD/svg11.dtd"><!-- Generated by graphviz version 2.40.1 (20161225.0304)
 --><!-- Title: G Pages: 1 --><svg xmlns="http://www.w3.org/2000/svg" xmlns:xlink="http://www.w3.org/1999/xlink" width="3224pt" height="3049pt" viewBox="0.00 0.00 3223.90 3049.07">
<g id="graph0" class="graph" transform="scale(1 1) rotate(0) translate(4 3045.0672)">
<title>G</title>
<polygon fill="#ffffff" stroke="transparent" points="-4,4 -4,-3045.0672 3219.9044,-3045.0672 3219.9044,4 -4,4"/>
<!-- v109 -->
<g id="node1" class="node">
<title>v109</title>
<polygon fill="none" stroke="#000000" points="3086.4978,-1224.4185 2970.2782,-1206.4185 3086.4978,-1188.4185 3202.7173,-1206.4185 3086.4978,-1224.4185"/>
<text text-anchor="middle" x="3086.4978" y="-1202.2185" font-family="Times,serif" font-size="14.00" fill="#000000">RANDOM TALK</text>
</g>
<!-- v104 -->
<g id="node2" class="node">
<title>v104</title>
<polygon fill="none" stroke="#000000" points="2988.8962,-924.0318 2866.4725,-906.0318 2988.8962,-888.0318 3111.3199,-906.0318 2988.8962,-924.0318"/>
<text text-anchor="middle" x="2988.8962" y="-901.8318" font-family="Times,serif" font-size="14.00" fill="#000000">SHORT SCUFFLE</text>
</g>
<!-- v109&#45;&gt;v104 -->
<g id="edge1" class="edge">
<title>v109-&gt;v104</title>
<path fill="none" stroke="#000000" d="M3080.8284,-1188.9701C3064.5215,-1138.7825 3017.4067,-993.7782 2997.7126,-933.1659"/>
<polygon fill="#000000" stroke="#000000" points="3001.0001,-931.9574 2994.5812,-923.5284 2994.3427,-934.1206 3001.0001,-931.9574"/>
<text text-anchor="middle" x="3023.7179" y="-1065.268" font-family="Times,serif" font-size="14.00" fill="#000000">about</text>
</g>
<!-- v88 -->
<g id="node6" class="node">
<title>v88</title>
<polygon fill="none" stroke="#000000" points="2830.9736,-650.5018 2779.9507,-632.5018 2830.9736,-614.5018 2881.9965,-632.5018 2830.9736,-650.5018"/>
<text text-anchor="middle" x="2830.9736" y="-628.3018" font-family="Times,serif" font-size="14.00" fill="#000000">DEBT</text>
</g>
<!-- v104&#45;&gt;v88 -->
<g id="edge7" class="edge">
<title>v104-&gt;v88</title>
<path fill="none" stroke="#000000" d="M2979.2552,-889.333C2952.3429,-842.7196 2876.3251,-711.053 2844.8681,-656.5679"/>
<polygon fill="#000000" stroke="#000000" points="2847.7353,-654.5338 2839.7042,-647.6236 2841.6731,-658.0339 2847.7353,-654.5338"/>
<text text-anchor="middle" x="2896.509" y="-777.1505" font-family="Times,serif" font-size="14.00" fill="#000000">about</text>
</g>
<!-- v99 -->
<g id="node3" class="node">
<title>v99</title>
<polygon fill="none" stroke="#000000" points="2988.8962,-2153.0354 2872.6767,-2135.0354 2988.8962,-2117.0354 3105.1157,-2135.0354 2988.8962,-2153.0354"/>
<text text-anchor="middle" x="2988.8962" y="-2130.8354" font-family="Times,serif" font-size="14.00" fill="#000000">RANDOM TALK</text>
</g>
<!-- v93 -->
<g id="node5" class="node">
<title>v93</title>
<polygon fill="none" stroke="#000000" points="3119.5126,-1538.5336 3023.229,-1520.5336 3119.5126,-1502.5336 3215.7962,-1520.5336 3119.5126,-1538.5336"/>
<text text-anchor="middle" x="3119.5126" y="-1516.3336" font-family="Times,serif" font-size="14.00" fill="#000000">HAS MONEY</text>
</g>
<!-- v99&#45;&gt;v93 -->
<g id="edge8" class="edge">
<title>v99-&gt;v93</title>
<path fill="none" stroke="#000000" d="M2992.6644,-2117.3072C3011.044,-2030.838 3091.3053,-1653.2385 3113.6945,-1547.9054"/>
<polygon fill="#000000" stroke="#000000" points="3117.136,-1548.5483 3115.7917,-1538.0391 3110.289,-1547.0928 3117.136,-1548.5483"/>
<text text-anchor="middle" x="3037.6269" y="-1820.0063" font-family="Times,serif" font-size="14.00" fill="#000000">about</text>
</g>
<!-- v95 -->
<g id="node4" class="node">
<title>v95</title>
<polygon fill="none" stroke="#000000" points="3086.4978,-1852.6486 2967.979,-1834.6486 3086.4978,-1816.6486 3205.0166,-1834.6486 3086.4978,-1852.6486"/>
<text text-anchor="middle" x="3086.4978" y="-1830.4486" font-family="Times,serif" font-size="14.00" fill="#000000">TALK AT WORK</text>
</g>
<!-- v95&#45;&gt;v93 -->
<g id="edge12" class="edge">
<title>v95-&gt;v93</title>
<path fill="none" stroke="#000000" d="M3088.3674,-1816.8605C3093.8477,-1764.719 3109.9044,-1611.9499 3116.5648,-1548.5798"/>
<polygon fill="#000000" stroke="#000000" points="3120.058,-1548.8271 3117.6226,-1538.516 3113.0964,-1548.0954 3120.058,-1548.8271"/>
<text text-anchor="middle" x="3086.9135" y="-1686.9201" font-family="Times,serif" font-size="14.00" fill="#000000">about</text>
</g>
<!-- v9 -->
<g id="node23" class="node">
<title>v9</title>
<ellipse fill="none" stroke="#000000" cx="2830.9736" cy="-2408.5654" rx="98.9936" ry="18"/>
<text text-anchor="middle" x="2830.9736" y="-2404.3654" font-family="Times,serif" font-size="14.00" fill="#000000">SOLEY(SERGEANT)</text>
</g>
<!-- v93&#45;&gt;v9 -->
<g id="edge15" class="edge">
<title>v93-&gt;v9</title>
<path fill="none" stroke="#000000" d="M3113.8783,-1537.8742C3078.2634,-1647.4854 2884.4559,-2243.9637 2840.0444,-2380.6482"/>
<polygon fill="#000000" stroke="#000000" points="2836.6446,-2379.7858 2836.883,-2390.378 2843.302,-2381.949 2836.6446,-2379.7858"/>
<text text-anchor="middle" x="2964.9081" y="-1963.4612" font-family="Times,serif" font-size="14.00" fill="#000000">who</text>
</g>
<!-- v87 -->
<g id="node7" class="node">
<title>v87</title>
<polygon fill="none" stroke="#000000" points="2364.1076,-230.1338 2275.9856,-212.1338 2364.1076,-194.1338 2452.2297,-212.1338 2364.1076,-230.1338"/>
<text text-anchor="middle" x="2364.1076" y="-207.9338" font-family="Times,serif" font-size="14.00" fill="#000000">PAST DEBT</text>
</g>
<!-- v83 -->
<g id="node8" class="node">
<title>v83</title>
<polygon fill="none" stroke="#000000" points="97.8927,-1538.5336 .1072,-1520.5336 97.8927,-1502.5336 195.6781,-1520.5336 97.8927,-1538.5336"/>
<text text-anchor="middle" x="97.8927" y="-1516.3336" font-family="Times,serif" font-size="14.00" fill="#000000">LOOK ALIKE</text>
</g>
<!-- v79 -->
<g id="node9" class="node">
<title>v79</title>
<polygon fill="none" stroke="#000000" points="386.4317,-2426.5654 270.2122,-2408.5654 386.4317,-2390.5654 502.6512,-2408.5654 386.4317,-2426.5654"/>
<text text-anchor="middle" x="386.4317" y="-2404.3654" font-family="Times,serif" font-size="14.00" fill="#000000">RANDOM TALK</text>
</g>
<!-- v69 -->
<g id="node11" class="node">
<title>v69</title>
<polygon fill="none" stroke="#000000" points="228.509,-2153.0354 119.9516,-2135.0354 228.509,-2117.0354 337.0665,-2135.0354 228.509,-2153.0354"/>
<text text-anchor="middle" x="228.509" y="-2130.8354" font-family="Times,serif" font-size="14.00" fill="#000000">SHORT FIGHT!</text>
</g>
<!-- v79&#45;&gt;v69 -->
<g id="edge23" class="edge">
<title>v79-&gt;v69</title>
<path fill="none" stroke="#000000" d="M376.7906,-2391.8666C350.0759,-2345.5953 274.9737,-2215.5146 243.1033,-2160.3134"/>
<polygon fill="#000000" stroke="#000000" points="246.055,-2158.4258 238.0239,-2151.5156 239.9929,-2161.9259 246.055,-2158.4258"/>
<text text-anchor="middle" x="294.3944" y="-2280.29" font-family="Times,serif" font-size="14.00" fill="#000000">about</text>
</g>
<!-- v73 -->
<g id="node10" class="node">
<title>v73</title>
<polygon fill="none" stroke="#000000" points="130.9075,-1224.4185 12.3887,-1206.4185 130.9075,-1188.4185 249.4263,-1206.4185 130.9075,-1224.4185"/>
<text text-anchor="middle" x="130.9075" y="-1202.2185" font-family="Times,serif" font-size="14.00" fill="#000000">TALK AT WORK</text>
</g>
<!-- v73&#45;&gt;v69 -->
<g id="edge26" class="edge">
<title>v73-&gt;v69</title>
<path fill="none" stroke="#000000" d="M132.7701,-1224.1397C144.7393,-1338.0199 210.8064,-1966.6061 225.5787,-2107.1548"/>
<polygon fill="#000000" stroke="#000000" points="222.1007,-2107.5488 226.6269,-2117.1281 229.0624,-2106.817 222.1007,-2107.5488"/>
<text text-anchor="middle" x="163.6218" y="-1669.8472" font-family="Times,serif" font-size="14.00" fill="#000000">about</text>
</g>
<!-- v69&#45;&gt;v83 -->
<g id="edge20" class="edge">
<title>v69-&gt;v83</title>
<path fill="none" stroke="#000000" d="M224.8104,-2117.6344C206.5679,-2031.8103 126.1572,-1653.5077 103.7228,-1547.9621"/>
<polygon fill="#000000" stroke="#000000" points="107.1241,-1547.1295 101.6214,-1538.0758 100.277,-1548.585 107.1241,-1547.1295"/>
<text text-anchor="middle" x="186.4181" y="-1820.1983" font-family="Times,serif" font-size="14.00" fill="#000000">because</text>
</g>
<!-- v0 -->
<g id="node30" class="node">
<title>v0</title>
<polygon fill="none" stroke="#000000" points="1793.6253,-3041.0672 1739.6253,-3041.0672 1739.6253,-3005.0672 1793.6253,-3005.0672 1793.6253,-3041.0672"/>
<text text-anchor="middle" x="1766.6253" y="-3018.8672" font-family="Times,serif" font-size="14.00" fill="#000000">INN</text>
</g>
<!-- v69&#45;&gt;v0 -->
<g id="edge33" class="edge">
<title>v69-&gt;v0</title>
<path fill="none" stroke="#000000" d="M252.9797,-2149.1635C430.3864,-2251.5893 1518.3929,-2879.7502 1730.7196,-3002.337"/>
<polygon fill="#000000" stroke="#000000" points="1729.1923,-3005.4967 1739.6026,-3007.4656 1732.6923,-2999.4345 1729.1923,-3005.4967"/>
<text text-anchor="middle" x="951.2329" y="-2579.9503" font-family="Times,serif" font-size="14.00" fill="#000000">happened near</text>
</g>
<!-- v64 -->
<g id="node12" class="node">
<title>v64</title>
<polygon fill="none" stroke="#000000" points="853.2976,-230.1338 737.0781,-212.1338 853.2976,-194.1338 969.5172,-212.1338 853.2976,-230.1338"/>
<text text-anchor="middle" x="853.2976" y="-207.9338" font-family="Times,serif" font-size="14.00" fill="#000000">RANDOM TALK</text>
</g>
<!-- v61 -->
<g id="node13" class="node">
<title>v61</title>
<polygon fill="none" stroke="#000000" points="597.7734,-415.783 498.9036,-397.783 597.7734,-379.783 696.6433,-397.783 597.7734,-415.783"/>
<text text-anchor="middle" x="597.7734" y="-393.583" font-family="Times,serif" font-size="14.00" fill="#000000">HARSH PAST</text>
</g>
<!-- v64&#45;&gt;v61 -->
<g id="edge34" class="edge">
<title>v64-&gt;v61</title>
<path fill="none" stroke="#000000" d="M832.819,-227.0124C787.2729,-260.1036 677.5313,-339.8355 625.7338,-377.4686"/>
<polygon fill="#000000" stroke="#000000" points="623.6758,-374.6375 617.6429,-383.347 627.7903,-380.3007 623.6758,-374.6375"/>
<text text-anchor="middle" x="713.7238" y="-306.4405" font-family="Times,serif" font-size="14.00" fill="#000000">about</text>
</g>
<!-- v36 -->
<g id="node14" class="node">
<title>v36</title>
<ellipse fill="none" stroke="#000000" cx="386.4317" cy="-632.5018" rx="100.7191" ry="18"/>
<text text-anchor="middle" x="386.4317" y="-628.3018" font-family="Times,serif" font-size="14.00" fill="#000000">FINNUR(FOREMAN)</text>
</g>
<!-- v36&#45;&gt;v83 -->
<g id="edge21" class="edge">
<title>v36-&gt;v83</title>
<path fill="none" stroke="#000000" d="M380.5373,-650.643C344.1588,-762.6043 150.3005,-1359.239 106.6335,-1493.6322"/>
<polygon fill="#000000" stroke="#000000" points="103.1839,-1492.9228 103.4224,-1503.5149 109.8413,-1495.0859 103.1839,-1492.9228"/>
<text text-anchor="middle" x="216.1699" y="-1076.3376" font-family="Times,serif" font-size="14.00" fill="#000000">looks like</text>
</g>
<!-- v36&#45;&gt;v61 -->
<g id="edge39" class="edge">
<title>v36-&gt;v61</title>
<path fill="none" stroke="#000000" d="M402.6644,-614.4735C440.5833,-572.3603 534.941,-467.5655 576.9864,-420.8693"/>
<polygon fill="#000000" stroke="#000000" points="579.647,-423.1452 583.7373,-413.3717 574.4449,-418.4612 579.647,-423.1452"/>
<text text-anchor="middle" x="437.9288" y="-521.8714" font-family="Times,serif" font-size="14.00" fill="#000000">remembers (bully)</text>
</g>
<!-- v5 -->
<g id="node25" class="node">
<title>v5</title>
<polygon fill="none" stroke="#000000" points="1174.6127,-2975.3993 1109.0607,-2975.3993 1109.0607,-2939.3993 1174.6127,-2939.3993 1174.6127,-2975.3993"/>
<text text-anchor="middle" x="1141.8367" y="-2953.1993" font-family="Times,serif" font-size="14.00" fill="#000000">CLERIC</text>
</g>
<!-- v36&#45;&gt;v5 -->
<g id="edge63" class="edge">
<title>v36-&gt;v5</title>
<path fill="none" stroke="#000000" d="M392.2931,-650.5414C457.818,-852.2061 1052.1833,-2681.4744 1132.8004,-2929.5884"/>
<polygon fill="#000000" stroke="#000000" points="1129.5342,-2930.8627 1135.9532,-2939.2917 1136.1916,-2928.6995 1129.5342,-2930.8627"/>
<text text-anchor="middle" x="735.5317" y="-1794.2649" font-family="Times,serif" font-size="14.00" fill="#000000">lives near</text>
</g>
<!-- v4 -->
<g id="node26" class="node">
<title>v4</title>
<polygon fill="none" stroke="#000000" points="1189.9321,-101.6679 1093.7412,-101.6679 1093.7412,-65.6679 1189.9321,-65.6679 1189.9321,-101.6679"/>
<text text-anchor="middle" x="1141.8367" y="-79.4679" font-family="Times,serif" font-size="14.00" fill="#000000">MINESHAFT</text>
</g>
<!-- v36&#45;&gt;v4 -->
<g id="edge62" class="edge">
<title>v36-&gt;v4</title>
<path fill="none" stroke="#000000" d="M410.7098,-614.8627C521.6755,-534.2414 980.6708,-200.7618 1108.6013,-107.8148"/>
<polygon fill="#000000" stroke="#000000" points="1110.8542,-110.5043 1116.8871,-101.7948 1106.7397,-104.8412 1110.8542,-110.5043"/>
<text text-anchor="middle" x="735.3544" y="-365.5388" font-family="Times,serif" font-size="14.00" fill="#000000">works in</text>
</g>
<!-- v2 -->
<g id="node28" class="node">
<title>v2</title>
<polygon fill="none" stroke="#000000" points="2410.9892,-2846.9334 2317.226,-2846.9334 2317.226,-2810.9334 2410.9892,-2810.9334 2410.9892,-2846.9334"/>
<text text-anchor="middle" x="2364.1076" y="-2824.7334" font-family="Times,serif" font-size="14.00" fill="#000000">MESS HALL</text>
</g>
<!-- v36&#45;&gt;v2 -->
<g id="edge51" class="edge">
<title>v36-&gt;v2</title>
<path fill="none" stroke="#000000" d="M402.6416,-650.5047C578.5696,-845.8926 2131.3502,-2570.4301 2340.7769,-2803.022"/>
<polygon fill="#000000" stroke="#000000" points="2338.3633,-2805.5722 2347.6557,-2810.6617 2343.5653,-2800.8882 2338.3633,-2805.5722"/>
<text text-anchor="middle" x="1356.9287" y="-1730.9633" font-family="Times,serif" font-size="14.00" fill="#000000">visits</text>
</g>
<!-- v33 -->
<g id="node15" class="node">
<title>v33</title>
<ellipse fill="none" stroke="#000000" cx="1450.78" cy="-3023.0672" rx="73.556" ry="18"/>
<text text-anchor="middle" x="1450.78" y="-3018.8672" font-family="Times,serif" font-size="14.00" fill="#000000">UNA(OWNER)</text>
</g>
<!-- v33&#45;&gt;v99 -->
<g id="edge9" class="edge">
<title>v33-&gt;v99</title>
<path fill="none" stroke="#000000" d="M1479.794,-3006.3159C1671.2012,-2895.8069 2751.108,-2272.3224 2955.5086,-2154.3117"/>
<polygon fill="#000000" stroke="#000000" points="2957.396,-2157.2635 2964.3063,-2149.2324 2953.896,-2151.2013 2957.396,-2157.2635"/>
<text text-anchor="middle" x="2195.8785" y="-2584.5138" font-family="Times,serif" font-size="14.00" fill="#000000">listened</text>
</g>
<!-- v33&#45;&gt;v5 -->
<g id="edge41" class="edge">
<title>v33-&gt;v5</title>
<path fill="none" stroke="#000000" d="M1394.8327,-3011.1752C1334.5541,-2998.3626 1239.9225,-2978.248 1185.0893,-2966.5929"/>
<polygon fill="#000000" stroke="#000000" points="1185.5124,-2963.1047 1175.0032,-2964.449 1184.057,-2969.9517 1185.5124,-2963.1047"/>
<text text-anchor="middle" x="1275.1805" y="-2993.0841" font-family="Times,serif" font-size="14.00" fill="#000000">visits</text>
</g>
<!-- v33&#45;&gt;v2 -->
<g id="edge52" class="edge">
<title>v33-&gt;v2</title>
<path fill="none" stroke="#000000" d="M1506.5379,-3011.2155C1669.3764,-2976.6031 2143.0722,-2875.9159 2307.2727,-2841.014"/>
<polygon fill="#000000" stroke="#000000" points="2308.1199,-2844.4122 2317.1737,-2838.9095 2306.6645,-2837.5652 2308.1199,-2844.4122"/>
<text text-anchor="middle" x="1892.1248" y="-2930.3148" font-family="Times,serif" font-size="14.00" fill="#000000">visits</text>
</g>
<!-- v1 -->
<g id="node29" class="node">
<title>v1</title>
<polygon fill="none" stroke="#000000" points="916.3068,-2846.9334 790.2884,-2846.9334 790.2884,-2810.9334 916.3068,-2810.9334 916.3068,-2846.9334"/>
<text text-anchor="middle" x="853.2976" y="-2824.7334" font-family="Times,serif" font-size="14.00" fill="#000000">DRINKING HOLE</text>
</g>
<!-- v33&#45;&gt;v1 -->
<g id="edge65" class="edge">
<title>v33-&gt;v1</title>
<path fill="none" stroke="#000000" d="M1406.3598,-3008.6342C1302.0873,-2974.754 1041.2304,-2889.9965 918.7494,-2850.2"/>
<polygon fill="#000000" stroke="#000000" points="919.7011,-2846.8291 909.1089,-2847.0676 917.5379,-2853.4865 919.7011,-2846.8291"/>
<text text-anchor="middle" x="1135.5395" y="-2916.8171" font-family="Times,serif" font-size="14.00" fill="#000000">lives near</text>
</g>
<!-- v33&#45;&gt;v0 -->
<g id="edge64" class="edge">
<title>v33-&gt;v0</title>
<path fill="none" stroke="#000000" d="M1524.8317,-3023.0672C1589.0064,-3023.0672 1679.2121,-3023.0672 1729.3333,-3023.0672"/>
<polygon fill="#000000" stroke="#000000" points="1729.3964,-3026.5673 1739.3964,-3023.0672 1729.3963,-3019.5673 1729.3964,-3026.5673"/>
<text text-anchor="middle" x="1602.7813" y="-3027.2672" font-family="Times,serif" font-size="14.00" fill="#000000">works in</text>
</g>
<!-- v30 -->
<g id="node16" class="node">
<title>v30</title>
<ellipse fill="none" stroke="#000000" cx="228.509" cy="-906.0318" rx="95.5452" ry="18"/>
<text text-anchor="middle" x="228.509" y="-901.8318" font-family="Times,serif" font-size="14.00" fill="#000000">KATRIN(WORKER)</text>
</g>
<!-- v30&#45;&gt;v73 -->
<g id="edge28" class="edge">
<title>v30-&gt;v73</title>
<path fill="none" stroke="#000000" d="M222.5506,-924.3702C205.9617,-975.4255 159.1836,-1119.3936 139.649,-1179.5149"/>
<polygon fill="#000000" stroke="#000000" points="136.3049,-1178.481 136.5434,-1189.0731 142.9623,-1180.6441 136.3049,-1178.481"/>
<text text-anchor="middle" x="159.327" y="-1056.1425" font-family="Times,serif" font-size="14.00" fill="#000000">listened</text>
</g>
<!-- v30&#45;&gt;v69 -->
<g id="edge31" class="edge">
<title>v30-&gt;v69</title>
<path fill="none" stroke="#000000" d="M228.509,-924.3589C228.509,-1062.2709 228.509,-1936.5327 228.509,-2106.4446"/>
<polygon fill="#000000" stroke="#000000" points="225.0091,-2106.6025 228.509,-2116.6025 232.0091,-2106.6025 225.0091,-2106.6025"/>
<text text-anchor="middle" x="284.2969" y="-1519.6018" font-family="Times,serif" font-size="14.00" fill="#000000">mistakenly attacked</text>
</g>
<!-- v30&#45;&gt;v64 -->
<g id="edge37" class="edge">
<title>v30-&gt;v64</title>
<path fill="none" stroke="#000000" d="M244.5812,-888.1819C330.4841,-792.7771 735.1578,-343.3414 832.2976,-235.4567"/>
<polygon fill="#000000" stroke="#000000" points="834.9124,-237.7833 839.0027,-228.0099 829.7104,-233.0994 834.9124,-237.7833"/>
<text text-anchor="middle" x="521.3342" y="-566.0193" font-family="Times,serif" font-size="14.00" fill="#000000">talked</text>
</g>
<!-- v30&#45;&gt;v61 -->
<g id="edge38" class="edge">
<title>v30-&gt;v61</title>
<path fill="none" stroke="#000000" d="M241.6514,-887.943C297.6087,-810.9243 516.0666,-510.2428 580.0642,-422.1576"/>
<polygon fill="#000000" stroke="#000000" points="583.0522,-423.9996 586.0985,-413.8521 577.3891,-419.885 583.0522,-423.9996"/>
<text text-anchor="middle" x="353.9086" y="-659.2503" font-family="Times,serif" font-size="14.00" fill="#000000">remembers (bullied)</text>
</g>
<!-- v30&#45;&gt;v36 -->
<g id="edge40" class="edge">
<title>v30-&gt;v36</title>
<path fill="none" stroke="#ff0000" d="M238.8708,-888.0847C265.9206,-841.2332 338.7874,-715.0241 370.8869,-659.4262"/>
<polygon fill="#ff0000" stroke="#ff0000" points="374.0628,-660.9252 376.0318,-650.5149 368.0006,-657.4252 374.0628,-660.9252"/>
<text text-anchor="middle" x="284.6656" y="-777.9555" font-family="Times,serif" font-size="14.00" fill="#000000">murder</text>
</g>
<!-- v30&#45;&gt;v5 -->
<g id="edge42" class="edge">
<title>v30-&gt;v5</title>
<path fill="none" stroke="#000000" d="M236.5437,-924.078C320.0032,-1111.5309 1027.6049,-2700.8305 1129.6055,-2929.9277"/>
<polygon fill="#000000" stroke="#000000" points="1126.4842,-2931.5223 1133.7491,-2939.2342 1132.879,-2928.6751 1126.4842,-2931.5223"/>
<text text-anchor="middle" x="668.2941" y="-1931.2028" font-family="Times,serif" font-size="14.00" fill="#000000">visits</text>
</g>
<!-- v30&#45;&gt;v4 -->
<g id="edge66" class="edge">
<title>v30-&gt;v4</title>
<path fill="none" stroke="#000000" d="M248.4346,-888.0908C366.7302,-781.577 976.2887,-232.728 1114.1153,-108.6284"/>
<polygon fill="#000000" stroke="#000000" points="1116.6932,-111.0169 1121.7827,-101.7246 1112.0093,-105.8149 1116.6932,-111.0169"/>
<text text-anchor="middle" x="656.9737" y="-502.5596" font-family="Times,serif" font-size="14.00" fill="#000000">works in</text>
</g>
<!-- v30&#45;&gt;v2 -->
<g id="edge67" class="edge">
<title>v30-&gt;v2</title>
<path fill="none" stroke="#000000" d="M248.2869,-923.8399C448.1754,-1103.8203 2100.7479,-2591.8033 2336.2277,-2803.8302"/>
<polygon fill="#000000" stroke="#000000" points="2334.2285,-2806.7399 2344.0019,-2810.8302 2338.9124,-2801.5378 2334.2285,-2806.7399"/>
<text text-anchor="middle" x="1265.2422" y="-1868.0351" font-family="Times,serif" font-size="14.00" fill="#000000">lives near</text>
</g>
<!-- v30&#45;&gt;v1 -->
<g id="edge53" class="edge">
<title>v30-&gt;v1</title>
<path fill="none" stroke="#000000" d="M234.3934,-924.1421C293.0828,-1104.7694 772.5147,-2580.3091 844.3139,-2801.2844"/>
<polygon fill="#000000" stroke="#000000" points="841.0026,-2802.4196 847.4215,-2810.8485 847.66,-2800.2564 841.0026,-2802.4196"/>
<text text-anchor="middle" x="524.5732" y="-1866.9133" font-family="Times,serif" font-size="14.00" fill="#000000">visits</text>
</g>
<!-- v27 -->
<g id="node17" class="node">
<title>v27</title>
<ellipse fill="none" stroke="#000000" cx="2619.6318" cy="-2643.2842" rx="118.0966" ry="18"/>
<text text-anchor="middle" x="2619.6318" y="-2639.0842" font-family="Times,serif" font-size="14.00" fill="#000000">WILLIAM(BARTENDER)</text>
</g>
<!-- v27&#45;&gt;v99 -->
<g id="edge10" class="edge">
<title>v27-&gt;v99</title>
<path fill="none" stroke="#000000" d="M2632.7741,-2625.1954C2688.6694,-2548.2621 2906.7046,-2248.1624 2970.9733,-2159.7041"/>
<polygon fill="#000000" stroke="#000000" points="2973.9917,-2161.5041 2977.0381,-2151.3567 2968.3286,-2157.3896 2973.9917,-2161.5041"/>
<text text-anchor="middle" x="2780.1009" y="-2379.8497" font-family="Times,serif" font-size="14.00" fill="#000000">listened</text>
</g>
<!-- v27&#45;&gt;v5 -->
<g id="edge43" class="edge">
<title>v27-&gt;v5</title>
<path fill="none" stroke="#000000" d="M2550.3368,-2658.0133C2292.3423,-2712.8517 1391.6915,-2904.291 1184.5438,-2948.3216"/>
<polygon fill="#000000" stroke="#000000" points="1183.7058,-2944.9214 1174.6521,-2950.4241 1185.1612,-2951.7685 1183.7058,-2944.9214"/>
<text text-anchor="middle" x="1852.6598" y="-2807.3674" font-family="Times,serif" font-size="14.00" fill="#000000">visits</text>
</g>
<!-- v27&#45;&gt;v2 -->
<g id="edge69" class="edge">
<title>v27-&gt;v2</title>
<path fill="none" stroke="#000000" d="M2595.1311,-2661.085C2548.9839,-2694.6129 2449.1529,-2767.1444 2397.1351,-2804.9375"/>
<polygon fill="#000000" stroke="#000000" points="2394.9425,-2802.2042 2388.9096,-2810.9137 2399.0571,-2807.8674 2394.9425,-2802.2042"/>
<text text-anchor="middle" x="2469.118" y="-2737.2113" font-family="Times,serif" font-size="14.00" fill="#000000">lives near</text>
</g>
<!-- v27&#45;&gt;v1 -->
<g id="edge54" class="edge">
<title>v27-&gt;v1</title>
<path fill="none" stroke="#000000" d="M2522.15,-2653.5299C2204.7783,-2686.8871 1205.5077,-2791.9146 926.3666,-2821.2535"/>
<polygon fill="#000000" stroke="#000000" points="925.9297,-2817.7801 916.3504,-2822.3063 926.6615,-2824.7417 925.9297,-2817.7801"/>
<text text-anchor="middle" x="1709.4778" y="-2741.5917" font-family="Times,serif" font-size="14.00" fill="#000000">visits</text>
</g>
<!-- v27&#45;&gt;v0 -->
<g id="edge68" class="edge">
<title>v27-&gt;v0</title>
<path fill="none" stroke="#000000" d="M2581.3228,-2660.3405C2439.1773,-2723.6277 1942.9829,-2944.5477 1803.4066,-3006.6911"/>
<polygon fill="#000000" stroke="#000000" points="1801.695,-3003.6218 1793.9831,-3010.8867 1804.5422,-3010.0167 1801.695,-3003.6218"/>
<text text-anchor="middle" x="2168.0635" y="-2837.7158" font-family="Times,serif" font-size="14.00" fill="#000000">works in</text>
</g>
<!-- v24 -->
<g id="node18" class="node">
<title>v24</title>
<ellipse fill="none" stroke="#000000" cx="130.9075" cy="-1834.6486" rx="72.3652" ry="18"/>
<text text-anchor="middle" x="130.9075" y="-1830.4486" font-family="Times,serif" font-size="14.00" fill="#000000">IRIS(TIMBER)</text>
</g>
<!-- v24&#45;&gt;v83 -->
<g id="edge22" class="edge">
<title>v24-&gt;v83</title>
<path fill="none" stroke="#000000" d="M128.9898,-1816.4028C123.4608,-1763.7977 107.4614,-1611.5744 100.8279,-1548.4608"/>
<polygon fill="#000000" stroke="#000000" points="104.3007,-1548.0177 99.7745,-1538.4384 97.3391,-1548.7495 104.3007,-1548.0177"/>
<text text-anchor="middle" x="87.4933" y="-1686.6318" font-family="Times,serif" font-size="14.00" fill="#000000">looks like</text>
</g>
<!-- v24&#45;&gt;v79 -->
<g id="edge25" class="edge">
<title>v24-&gt;v79</title>
<path fill="none" stroke="#000000" d="M138.9768,-1852.7727C176.1299,-1936.2198 330.7825,-2283.5753 374.7346,-2382.2933"/>
<polygon fill="#000000" stroke="#000000" points="371.5972,-2383.8519 378.8621,-2391.5637 377.992,-2381.0047 371.5972,-2383.8519"/>
<text text-anchor="middle" x="239.7505" y="-2104.933" font-family="Times,serif" font-size="14.00" fill="#000000">talked</text>
</g>
<!-- v24&#45;&gt;v73 -->
<g id="edge30" class="edge">
<title>v24-&gt;v73</title>
<path fill="none" stroke="#000000" d="M130.9075,-1816.5245C130.9075,-1728.2207 130.9075,-1342.9372 130.9075,-1234.7582"/>
<polygon fill="#000000" stroke="#000000" points="134.4076,-1234.6162 130.9075,-1224.6163 127.4076,-1234.6163 134.4076,-1234.6162"/>
<text text-anchor="middle" x="113.8023" y="-1529.8413" font-family="Times,serif" font-size="14.00" fill="#000000">talked</text>
</g>
<!-- v24&#45;&gt;v69 -->
<g id="edge32" class="edge">
<title>v24-&gt;v69</title>
<path fill="none" stroke="#000000" d="M136.866,-1852.987C153.4549,-1904.0424 200.2329,-2048.0104 219.7675,-2108.1317"/>
<polygon fill="#000000" stroke="#000000" points="216.4542,-2109.261 222.8732,-2117.6899 223.1116,-2107.0978 216.4542,-2109.261"/>
<text text-anchor="middle" x="142.3641" y="-1984.7594" font-family="Times,serif" font-size="14.00" fill="#000000">was attacked</text>
</g>
<!-- v24&#45;&gt;v4 -->
<g id="edge44" class="edge">
<title>v24-&gt;v4</title>
<path fill="none" stroke="#000000" d="M143.0858,-1816.6498C249.4217,-1646.1643 1016.3171,-318.0403 1128.2618,-110.8087"/>
<polygon fill="#000000" stroke="#000000" points="1131.4527,-112.2641 1133.0922,-101.7969 1125.2831,-108.9571 1131.4527,-112.2641"/>
<text text-anchor="middle" x="620.8933" y="-967.9293" font-family="Times,serif" font-size="14.00" fill="#000000">visits</text>
</g>
<!-- v24&#45;&gt;v4 -->
<g id="edge70" class="edge">
<title>v24-&gt;v4</title>
<path fill="none" stroke="#000000" d="M139.6232,-1816.5739C230.3455,-1645.6619 997.6948,-316.3263 1124.245,-110.4162"/>
<polygon fill="#000000" stroke="#000000" points="1127.3362,-112.072 1129.6211,-101.7264 1121.3834,-108.3891 1127.3362,-112.072"/>
<text text-anchor="middle" x="607.6329" y="-950.895" font-family="Times,serif" font-size="14.00" fill="#000000">works in</text>
</g>
<!-- v24&#45;&gt;v1 -->
<g id="edge55" class="edge">
<title>v24-&gt;v1</title>
<path fill="none" stroke="#000000" d="M141.5876,-1852.619C221.2281,-1972.8988 720.1428,-2659.8756 831.3822,-2802.8784"/>
<polygon fill="#000000" stroke="#000000" points="828.6402,-2805.0538 837.5621,-2810.768 834.151,-2800.7373 828.6402,-2805.0538"/>
<text text-anchor="middle" x="471.7044" y="-2331.9487" font-family="Times,serif" font-size="14.00" fill="#000000">visits</text>
</g>
<!-- v24&#45;&gt;v1 -->
<g id="edge71" class="edge">
<title>v24-&gt;v1</title>
<path fill="none" stroke="#000000" d="M146.338,-1852.4279C240.857,-1971.9912 739.2206,-2657.7638 836.7783,-2802.2391"/>
<polygon fill="#000000" stroke="#000000" points="833.8993,-2804.2302 842.3716,-2810.5918 839.7157,-2800.3353 833.8993,-2804.2302"/>
<text text-anchor="middle" x="464.5431" y="-2314.7335" font-family="Times,serif" font-size="14.00" fill="#000000">lives near</text>
</g>
<!-- v21 -->
<g id="node19" class="node">
<title>v21</title>
<ellipse fill="none" stroke="#000000" cx="597.7734" cy="-2643.2842" rx="85.6705" ry="18"/>
<text text-anchor="middle" x="597.7734" y="-2639.0842" font-family="Times,serif" font-size="14.00" fill="#000000">LEIFUR(HEWER)</text>
</g>
<!-- v21&#45;&gt;v79 -->
<g id="edge24" class="edge">
<title>v21-&gt;v79</title>
<path fill="none" stroke="#000000" d="M581.5407,-2625.2559C543.7132,-2583.2442 449.7186,-2478.8526 407.5236,-2431.9903"/>
<polygon fill="#000000" stroke="#000000" points="410.0338,-2429.5475 400.7415,-2424.458 404.8318,-2434.2315 410.0338,-2429.5475"/>
<text text-anchor="middle" x="472.7593" y="-2532.8231" font-family="Times,serif" font-size="14.00" fill="#000000">listened</text>
</g>
<!-- v21&#45;&gt;v73 -->
<g id="edge29" class="edge">
<title>v21-&gt;v73</title>
<path fill="none" stroke="#000000" d="M591.8705,-2625.1169C542.5316,-2473.2672 199.0845,-1416.246 139.6585,-1233.3514"/>
<polygon fill="#000000" stroke="#000000" points="142.9419,-1232.1302 136.523,-1223.7013 136.2845,-1234.2934 142.9419,-1232.1302"/>
<text text-anchor="middle" x="343.9917" y="-1933.4341" font-family="Times,serif" font-size="14.00" fill="#000000">listened</text>
</g>
<!-- v21&#45;&gt;v64 -->
<g id="edge35" class="edge">
<title>v21-&gt;v64</title>
<path fill="none" stroke="#000000" d="M599.6833,-2625.113C621.5082,-2417.463 823.5357,-495.3 850.3606,-240.0776"/>
<polygon fill="#000000" stroke="#000000" points="853.8425,-240.4328 851.407,-230.1217 846.8808,-239.701 853.8425,-240.4328"/>
<text text-anchor="middle" x="703.2492" y="-1436.7953" font-family="Times,serif" font-size="14.00" fill="#000000">listened</text>
</g>
<!-- v21&#45;&gt;v5 -->
<g id="edge73" class="edge">
<title>v21-&gt;v5</title>
<path fill="none" stroke="#000000" d="M627.411,-2660.3955C718.984,-2713.2651 997.4992,-2874.066 1101.8194,-2934.2953"/>
<polygon fill="#000000" stroke="#000000" points="1100.0777,-2937.3311 1110.488,-2939.3001 1103.5778,-2931.2689 1100.0777,-2937.3311"/>
<text text-anchor="middle" x="837.6001" y="-2784.7454" font-family="Times,serif" font-size="14.00" fill="#000000">lives near</text>
</g>
<!-- v21&#45;&gt;v4 -->
<g id="edge45" class="edge">
<title>v21-&gt;v4</title>
<path fill="none" stroke="#000000" d="M602.9375,-2625.1349C655.7449,-2411.3334 1088.4895,-375.8798 1137.441,-111.8432"/>
<polygon fill="#000000" stroke="#000000" points="1140.9045,-112.3595 1139.2533,-101.8941 1134.0178,-111.105 1140.9045,-112.3595"/>
<text text-anchor="middle" x="855.4087" y="-1372.689" font-family="Times,serif" font-size="14.00" fill="#000000">visits</text>
</g>
<!-- v21&#45;&gt;v4 -->
<g id="edge72" class="edge">
<title>v21-&gt;v4</title>
<path fill="none" stroke="#000000" d="M600.3744,-2624.9592C638.6603,-2410.1631 1071.2075,-374.7011 1134.2885,-111.6283"/>
<polygon fill="#000000" stroke="#000000" points="1137.7359,-112.2636 1136.6967,-101.7198 1130.9339,-110.6103 1137.7359,-112.2636"/>
<text text-anchor="middle" x="843.0302" y="-1355.6938" font-family="Times,serif" font-size="14.00" fill="#000000">works in</text>
</g>
<!-- v21&#45;&gt;v1 -->
<g id="edge56" class="edge">
<title>v21-&gt;v1</title>
<path fill="none" stroke="#000000" d="M621.8125,-2660.7496C667.7098,-2694.0959 767.8918,-2766.8824 820.1246,-2804.8318"/>
<polygon fill="#000000" stroke="#000000" points="818.2371,-2807.7866 828.3845,-2810.833 822.3516,-2802.1235 818.2371,-2807.7866"/>
<text text-anchor="middle" x="706.1881" y="-2736.9907" font-family="Times,serif" font-size="14.00" fill="#000000">visits</text>
</g>
<!-- v18 -->
<g id="node20" class="node">
<title>v18</title>
<ellipse fill="none" stroke="#000000" cx="1450.78" cy="-18" rx="75.2964" ry="18"/>
<text text-anchor="middle" x="1450.78" y="-13.8" font-family="Times,serif" font-size="14.00" fill="#000000">YRKI(CLERIC)</text>
</g>
<!-- v18&#45;&gt;v64 -->
<g id="edge36" class="edge">
<title>v18-&gt;v64</title>
<path fill="none" stroke="#000000" d="M1405.8717,-32.5916C1295.7544,-68.3709 1013.1332,-160.2 900.5805,-196.7706"/>
<polygon fill="#000000" stroke="#000000" points="899.2928,-193.5089 890.8638,-199.9278 901.4559,-200.1663 899.2928,-193.5089"/>
<text text-anchor="middle" x="1131.4533" y="-118.8811" font-family="Times,serif" font-size="14.00" fill="#000000">listened</text>
</g>
<!-- v18&#45;&gt;v5 -->
<g id="edge74" class="edge">
<title>v18-&gt;v5</title>
<path fill="none" stroke="#000000" d="M1448.8872,-36.0086C1424.6307,-266.7942 1174.8894,-2642.9239 1144.7984,-2929.2199"/>
<polygon fill="#000000" stroke="#000000" points="1141.3121,-2928.9072 1143.7476,-2939.2183 1148.2738,-2929.639 1141.3121,-2928.9072"/>
<text text-anchor="middle" x="1272.5416" y="-1486.8142" font-family="Times,serif" font-size="14.00" fill="#000000">works in</text>
</g>
<!-- v18&#45;&gt;v4 -->
<g id="edge46" class="edge">
<title>v18-&gt;v4</title>
<path fill="none" stroke="#000000" d="M1394.115,-30.0445C1339.0141,-41.7566 1255.7075,-59.4639 1200.0766,-71.2886"/>
<polygon fill="#000000" stroke="#000000" points="1199.078,-67.9226 1190.0242,-73.4253 1200.5334,-74.7697 1199.078,-67.9226"/>
<text text-anchor="middle" x="1282.3153" y="-54.8666" font-family="Times,serif" font-size="14.00" fill="#000000">visits</text>
</g>
<!-- v3 -->
<g id="node27" class="node">
<title>v3</title>
<polygon fill="none" stroke="#000000" points="1806.3998,-36 1726.8508,-36 1726.8508,0 1806.3998,0 1806.3998,-36"/>
<text text-anchor="middle" x="1766.6253" y="-13.8" font-family="Times,serif" font-size="14.00" fill="#000000">SKYPORT</text>
</g>
<!-- v18&#45;&gt;v3 -->
<g id="edge75" class="edge">
<title>v18-&gt;v3</title>
<path fill="none" stroke="#000000" d="M1526.4328,-18C1585.3372,-18 1665.428,-18 1716.5848,-18"/>
<polygon fill="#000000" stroke="#000000" points="1716.7296,-21.5001 1726.7295,-18 1716.7295,-14.5001 1716.7296,-21.5001"/>
<text text-anchor="middle" x="1594.4937" y="-22.2" font-family="Times,serif" font-size="14.00" fill="#000000">lives near</text>
</g>
<!-- v18&#45;&gt;v1 -->
<g id="edge57" class="edge">
<title>v18-&gt;v1</title>
<path fill="none" stroke="#000000" d="M1446.886,-36.3198C1398.6997,-263.0187 918.493,-2522.2135 859.2759,-2800.8079"/>
<polygon fill="#000000" stroke="#000000" points="855.7857,-2800.3945 857.13,-2810.9037 862.6327,-2801.8499 855.7857,-2800.3945"/>
<text text-anchor="middle" x="1138.3004" y="-1422.7639" font-family="Times,serif" font-size="14.00" fill="#000000">visits</text>
</g>
<!-- v15 -->
<g id="node21" class="node">
<title>v15</title>
<ellipse fill="none" stroke="#000000" cx="2619.6318" cy="-397.783" rx="91.4886" ry="18"/>
<text text-anchor="middle" x="2619.6318" y="-393.583" font-family="Times,serif" font-size="14.00" fill="#000000">GESTUR(PUTTER)</text>
</g>
<!-- v15&#45;&gt;v109 -->
<g id="edge2" class="edge">
<title>v15-&gt;v109</title>
<path fill="none" stroke="#000000" d="M2630.0376,-415.8063C2690.8799,-521.1882 3000.3358,-1057.1816 3071.7706,-1180.9104"/>
<polygon fill="#000000" stroke="#000000" points="3068.8293,-1182.816 3076.8605,-1189.7262 3074.8915,-1179.3159 3068.8293,-1182.816"/>
<text text-anchor="middle" x="2829.1313" y="-802.5583" font-family="Times,serif" font-size="14.00" fill="#000000">listened</text>
</g>
<!-- v15&#45;&gt;v104 -->
<g id="edge6" class="edge">
<title>v15-&gt;v104</title>
<path fill="none" stroke="#000000" d="M2632.7741,-415.8718C2688.6694,-492.8051 2906.7046,-792.9048 2970.9733,-881.3631"/>
<polygon fill="#000000" stroke="#000000" points="2968.3286,-883.6776 2977.0381,-889.7105 2973.9917,-879.563 2968.3286,-883.6776"/>
<text text-anchor="middle" x="2772.7236" y="-652.8175" font-family="Times,serif" font-size="14.00" fill="#000000">threatened</text>
</g>
<!-- v15&#45;&gt;v88 -->
<g id="edge18" class="edge">
<title>v15-&gt;v88</title>
<path fill="none" stroke="#000000" d="M2635.8645,-415.8112C2674.2522,-458.4451 2770.4826,-565.3197 2811.7216,-611.1203"/>
<polygon fill="#000000" stroke="#000000" points="2809.2383,-613.593 2818.5306,-618.6825 2814.4403,-608.9091 2809.2383,-613.593"/>
<text text-anchor="middle" x="2711.7405" y="-517.6658" font-family="Times,serif" font-size="14.00" fill="#000000">lend</text>
</g>
<!-- v15&#45;&gt;v87 -->
<g id="edge16" class="edge">
<title>v15-&gt;v87</title>
<path fill="none" stroke="#000000" d="M2595.5927,-380.3176C2548.0285,-345.7601 2442.1645,-268.8455 2391.784,-232.2418"/>
<polygon fill="#000000" stroke="#000000" points="2393.7668,-229.3562 2383.6194,-226.3099 2389.6523,-235.0194 2393.7668,-229.3562"/>
<text text-anchor="middle" x="2464.5383" y="-310.4797" font-family="Times,serif" font-size="14.00" fill="#000000">threatened</text>
</g>
<!-- v15&#45;&gt;v73 -->
<g id="edge27" class="edge">
<title>v15-&gt;v73</title>
<path fill="none" stroke="#000000" d="M2572.1385,-413.2145C2258.8584,-515.0054 492.1682,-1089.0378 178.5199,-1190.9483"/>
<polygon fill="#000000" stroke="#000000" points="177.249,-1187.6811 168.8201,-1194.1 179.4122,-1194.3385 177.249,-1187.6811"/>
<text text-anchor="middle" x="1353.5564" y="-806.2814" font-family="Times,serif" font-size="14.00" fill="#000000">listened</text>
</g>
<!-- v15&#45;&gt;v4 -->
<g id="edge76" class="edge">
<title>v15-&gt;v4</title>
<path fill="none" stroke="#000000" d="M2557.0767,-384.4865C2314.1593,-332.8528 1435.2649,-146.038 1200.0659,-96.0449"/>
<polygon fill="#000000" stroke="#000000" points="1200.5166,-92.5626 1190.0074,-93.9069 1199.0611,-99.4096 1200.5166,-92.5626"/>
<text text-anchor="middle" x="1854.2701" y="-244.4657" font-family="Times,serif" font-size="14.00" fill="#000000">works in</text>
</g>
<!-- v15&#45;&gt;v3 -->
<g id="edge47" class="edge">
<title>v15-&gt;v3</title>
<path fill="none" stroke="#000000" d="M2582.4307,-381.22C2445.646,-320.3195 1970.5117,-108.7761 1815.7604,-39.8764"/>
<polygon fill="#000000" stroke="#000000" points="1817.0266,-36.609 1806.4676,-35.7389 1814.1794,-43.0038 1817.0266,-36.609"/>
<text text-anchor="middle" x="2184.315" y="-214.7482" font-family="Times,serif" font-size="14.00" fill="#000000">visits</text>
</g>
<!-- v15&#45;&gt;v2 -->
<g id="edge77" class="edge">
<title>v15-&gt;v2</title>
<path fill="none" stroke="#000000" d="M2617.722,-415.9541C2595.9083,-623.4971 2394.0779,-2543.785 2367.0863,-2800.5934"/>
<polygon fill="#000000" stroke="#000000" points="2363.597,-2800.3087 2366.0324,-2810.6198 2370.5586,-2801.0405 2363.597,-2800.3087"/>
<text text-anchor="middle" x="2465.389" y="-1612.4738" font-family="Times,serif" font-size="14.00" fill="#000000">lives near</text>
</g>
<!-- v15&#45;&gt;v0 -->
<g id="edge58" class="edge">
<title>v15-&gt;v0</title>
<path fill="none" stroke="#000000" d="M2613.7292,-415.9492C2543.1707,-633.1061 1862.2314,-2728.8216 1775.6616,-2995.2561"/>
<polygon fill="#000000" stroke="#000000" points="1772.2747,-2994.3541 1772.5131,-3004.9463 1778.9321,-2996.5173 1772.2747,-2994.3541"/>
<text text-anchor="middle" x="2179.9149" y="-1709.8027" font-family="Times,serif" font-size="14.00" fill="#000000">visits</text>
</g>
<!-- v12 -->
<g id="node22" class="node">
<title>v12</title>
<ellipse fill="none" stroke="#000000" cx="2075.5686" cy="-83.6679" rx="88.0384" ry="18"/>
<text text-anchor="middle" x="2075.5686" y="-79.4679" font-family="Times,serif" font-size="14.00" fill="#000000">REYNIR(SAILOR)</text>
</g>
<!-- v12&#45;&gt;v109 -->
<g id="edge3" class="edge">
<title>v12-&gt;v109</title>
<path fill="none" stroke="#000000" d="M2091.8573,-101.7584C2209.7533,-232.6951 2931.5348,-1034.3147 3065.2117,-1182.778"/>
<polygon fill="#000000" stroke="#000000" points="3062.8624,-1185.3995 3072.1547,-1190.489 3068.0644,-1180.7155 3062.8624,-1185.3995"/>
<text text-anchor="middle" x="2561.4293" y="-646.4682" font-family="Times,serif" font-size="14.00" fill="#000000">talked</text>
</g>
<!-- v12&#45;&gt;v104 -->
<g id="edge4" class="edge">
<title>v12-&gt;v104</title>
<path fill="none" stroke="#000000" d="M2095.0673,-101.2246C2213.0686,-207.4735 2831.0517,-763.908 2963.7759,-883.4133"/>
<polygon fill="#000000" stroke="#000000" points="2961.6918,-886.2466 2971.4653,-890.3369 2966.3758,-881.0446 2961.6918,-886.2466"/>
<text text-anchor="middle" x="2516.9847" y="-496.519" font-family="Times,serif" font-size="14.00" fill="#000000">seen</text>
</g>
<!-- v12&#45;&gt;v87 -->
<g id="edge17" class="edge">
<title>v12-&gt;v87</title>
<path fill="none" stroke="#000000" d="M2112.4053,-100.0687C2167.5841,-124.6359 2271.1346,-170.7395 2326.6651,-195.4633"/>
<polygon fill="#000000" stroke="#000000" points="2325.5682,-198.8061 2336.1273,-199.6761 2328.4154,-192.4113 2325.5682,-198.8061"/>
<text text-anchor="middle" x="2175.4121" y="-151.966" font-family="Times,serif" font-size="14.00" fill="#000000">returned money</text>
</g>
<!-- v12&#45;&gt;v3 -->
<g id="edge48" class="edge">
<title>v12-&gt;v3</title>
<path fill="none" stroke="#000000" d="M2028.3487,-68.4554C1971.1799,-54.0152 1875.3191,-33.6278 1816.8379,-23.4628"/>
<polygon fill="#000000" stroke="#000000" points="1817.1695,-19.969 1806.7248,-21.7458 1815.9979,-26.8703 1817.1695,-19.969"/>
<text text-anchor="middle" x="1907.8128" y="-33.3591" font-family="Times,serif" font-size="14.00" fill="#000000">visits</text>
</g>
<!-- v12&#45;&gt;v3 -->
<g id="edge78" class="edge">
<title>v12-&gt;v3</title>
<path fill="none" stroke="#000000" d="M2001.1391,-73.8178C1943.9219,-63.095 1866.4633,-46.4004 1816.5111,-33.8832"/>
<polygon fill="#000000" stroke="#000000" points="1817.1486,-30.4339 1806.5942,-31.3589 1815.4218,-37.2176 1817.1486,-30.4339"/>
<text text-anchor="middle" x="1884.5239" y="-58.0505" font-family="Times,serif" font-size="14.00" fill="#000000">works in</text>
</g>
<!-- v12&#45;&gt;v1 -->
<g id="edge79" class="edge">
<title>v12-&gt;v1</title>
<path fill="none" stroke="#000000" d="M2067.4403,-101.9244C1967.9551,-325.3719 986.6112,-2529.5064 865.5291,-2801.461"/>
<polygon fill="#000000" stroke="#000000" points="862.3076,-2800.0917 861.4376,-2810.6508 868.7024,-2802.9389 862.3076,-2800.0917"/>
<text text-anchor="middle" x="1439.4696" y="-1455.8927" font-family="Times,serif" font-size="14.00" fill="#000000">lives near</text>
</g>
<!-- v12&#45;&gt;v0 -->
<g id="edge59" class="edge">
<title>v12-&gt;v0</title>
<path fill="none" stroke="#000000" d="M2073.6758,-101.6765C2049.4193,-332.4621 1799.678,-2708.5919 1769.587,-2994.8878"/>
<polygon fill="#000000" stroke="#000000" points="1766.1007,-2994.5751 1768.5362,-3004.8862 1773.0624,-2995.3069 1766.1007,-2994.5751"/>
<text text-anchor="middle" x="1906.8509" y="-1552.4821" font-family="Times,serif" font-size="14.00" fill="#000000">visits</text>
</g>
<!-- v9&#45;&gt;v104 -->
<g id="edge5" class="edge">
<title>v9-&gt;v104</title>
<path fill="none" stroke="#000000" d="M2832.8851,-2390.3782C2849.2577,-2234.6036 2965.7652,-1126.1087 2985.9271,-934.2815"/>
<polygon fill="#000000" stroke="#000000" points="2989.4263,-934.471 2986.9909,-924.1599 2982.4647,-933.7392 2989.4263,-934.471"/>
<text text-anchor="middle" x="2867.6231" y="-1666.5298" font-family="Times,serif" font-size="14.00" fill="#000000">was threatened</text>
</g>
<!-- v9&#45;&gt;v99 -->
<g id="edge11" class="edge">
<title>v9-&gt;v99</title>
<path fill="none" stroke="#000000" d="M2841.3353,-2390.6183C2868.6445,-2343.3174 2942.6541,-2215.1291 2974.2638,-2160.3794"/>
<polygon fill="#000000" stroke="#000000" points="2977.3379,-2162.0549 2979.3068,-2151.6447 2971.2757,-2158.5549 2977.3379,-2162.0549"/>
<text text-anchor="middle" x="2890.6944" y="-2279.6989" font-family="Times,serif" font-size="14.00" fill="#000000">talked</text>
</g>
<!-- v9&#45;&gt;v95 -->
<g id="edge14" class="edge">
<title>v9-&gt;v95</title>
<path fill="none" stroke="#000000" d="M2839.0429,-2390.4413C2876.196,-2306.9942 3030.8486,-1959.6387 3074.8007,-1860.9207"/>
<polygon fill="#000000" stroke="#000000" points="3078.0581,-1862.2094 3078.9281,-1851.6503 3071.6633,-1859.3622 3078.0581,-1862.2094"/>
<text text-anchor="middle" x="2939.8166" y="-2113.081" font-family="Times,serif" font-size="14.00" fill="#000000">talked</text>
</g>
<!-- v9&#45;&gt;v88 -->
<g id="edge19" class="edge">
<title>v9-&gt;v88</title>
<path fill="none" stroke="#000000" d="M2830.9736,-2390.4086C2830.9736,-2218.141 2830.9736,-873.4548 2830.9736,-660.7874"/>
<polygon fill="#000000" stroke="#000000" points="2834.4737,-660.7332 2830.9736,-650.7333 2827.4737,-660.7333 2834.4737,-660.7332"/>
<text text-anchor="middle" x="2804.1524" y="-1529.798" font-family="Times,serif" font-size="14.00" fill="#000000">borrowed</text>
</g>
<!-- v9&#45;&gt;v5 -->
<g id="edge81" class="edge">
<title>v9-&gt;v5</title>
<path fill="none" stroke="#000000" d="M2782.2426,-2424.399C2534.532,-2504.8851 1417.6367,-2867.7864 1184.5505,-2943.5207"/>
<polygon fill="#000000" stroke="#000000" points="1183.1759,-2940.2871 1174.7469,-2946.7061 1185.3391,-2946.9445 1183.1759,-2940.2871"/>
<text text-anchor="middle" x="1956.3815" y="-2688.1599" font-family="Times,serif" font-size="14.00" fill="#000000">lives near</text>
</g>
<!-- v9&#45;&gt;v3 -->
<g id="edge49" class="edge">
<title>v9-&gt;v3</title>
<path fill="none" stroke="#000000" d="M2822.8673,-2390.3585C2731.183,-2184.4322 1890.5414,-296.3203 1778.8607,-45.4812"/>
<polygon fill="#000000" stroke="#000000" points="1782.0433,-44.0242 1774.7785,-36.3124 1775.6485,-46.8714 1782.0433,-44.0242"/>
<text text-anchor="middle" x="2286.0835" y="-1222.1198" font-family="Times,serif" font-size="14.00" fill="#000000">visits</text>
</g>
<!-- v9&#45;&gt;v2 -->
<g id="edge80" class="edge">
<title>v9-&gt;v2</title>
<path fill="none" stroke="#000000" d="M2811.2111,-2426.3596C2737.3264,-2492.8857 2477.209,-2727.0964 2391.6298,-2804.1523"/>
<polygon fill="#000000" stroke="#000000" points="2389.2256,-2801.6073 2384.1361,-2810.8996 2393.9096,-2806.8093 2389.2256,-2801.6073"/>
<text text-anchor="middle" x="2577.1193" y="-2602.6559" font-family="Times,serif" font-size="14.00" fill="#000000">works in</text>
</g>
<!-- v9&#45;&gt;v0 -->
<g id="edge60" class="edge">
<title>v9-&gt;v0</title>
<path fill="none" stroke="#000000" d="M2801.1157,-2425.8039C2649.7889,-2513.1724 1968.2704,-2906.6473 1802.8732,-3002.1394"/>
<polygon fill="#000000" stroke="#000000" points="1800.9632,-2999.2006 1794.053,-3007.2318 1804.4633,-3005.2628 1800.9632,-2999.2006"/>
<text text-anchor="middle" x="2287.2139" y="-2718.1716" font-family="Times,serif" font-size="14.00" fill="#000000">visits</text>
</g>
<!-- v6 -->
<g id="node24" class="node">
<title>v6</title>
<ellipse fill="none" stroke="#000000" cx="2075.5686" cy="-2957.3993" rx="76.4208" ry="18"/>
<text text-anchor="middle" x="2075.5686" y="-2953.1993" font-family="Times,serif" font-size="14.00" fill="#000000">NINA(SAILOR)</text>
</g>
<!-- v6&#45;&gt;v95 -->
<g id="edge13" class="edge">
<title>v6-&gt;v95</title>
<path fill="none" stroke="#000000" d="M2091.4479,-2939.7635C2208.0586,-2810.2542 2931.222,-2007.0998 3065.1681,-1858.3376"/>
<polygon fill="#000000" stroke="#000000" points="3068.0348,-1860.3845 3072.1252,-1850.611 3062.8328,-1855.7005 3068.0348,-1860.3845"/>
<text text-anchor="middle" x="2556.5352" y="-2403.2506" font-family="Times,serif" font-size="14.00" fill="#000000">listened</text>
</g>
<!-- v6&#45;&gt;v3 -->
<g id="edge82" class="edge">
<title>v6-&gt;v3</title>
<path fill="none" stroke="#000000" d="M2073.6758,-2939.3907C2049.4193,-2708.6051 1799.678,-332.4753 1769.587,-46.1794"/>
<polygon fill="#000000" stroke="#000000" points="1773.0624,-45.7603 1768.5362,-36.1809 1766.1007,-46.492 1773.0624,-45.7603"/>
<text text-anchor="middle" x="1897.3302" y="-1496.985" font-family="Times,serif" font-size="14.00" fill="#000000">works in</text>
</g>
<!-- v6&#45;&gt;v2 -->
<g id="edge50" class="edge">
<title>v6-&gt;v2</title>
<path fill="none" stroke="#000000" d="M2120.7923,-2942.7183C2177.0842,-2920.2744 2272.2311,-2877.8726 2325.3409,-2851.5285"/>
<polygon fill="#000000" stroke="#000000" points="2327.0673,-2854.5782 2334.4352,-2846.9647 2323.9276,-2848.3218 2327.0673,-2854.5782"/>
<text text-anchor="middle" x="2208.2861" y="-2901.3234" font-family="Times,serif" font-size="14.00" fill="#000000">visits</text>
</g>
<!-- v6&#45;&gt;v2 -->
<g id="edge83" class="edge">
<title>v6-&gt;v2</title>
<path fill="none" stroke="#000000" d="M2103.0841,-2940.4684C2149.9263,-2916.4793 2245.9938,-2873.2926 2307.6178,-2848.1601"/>
<polygon fill="#000000" stroke="#000000" points="2309.2399,-2851.2796 2317.1995,-2844.2872 2306.6166,-2844.7897 2309.2399,-2851.2796"/>
<text text-anchor="middle" x="2178.3359" y="-2881.7143" font-family="Times,serif" font-size="14.00" fill="#000000">lives near</text>
</g>
<!-- v6&#45;&gt;v0 -->
<g id="edge61" class="edge">
<title>v6-&gt;v0</title>
<path fill="none" stroke="#000000" d="M2018.5436,-2969.5203C1955.9409,-2982.8269 1857.2472,-3003.8049 1803.8722,-3015.1501"/>
<polygon fill="#000000" stroke="#000000" points="1802.8793,-3011.7829 1793.8255,-3017.2856 1804.3347,-3018.6299 1802.8793,-3011.7829"/>
<text text-anchor="middle" x="1896.4274" y="-2996.5352" font-family="Times,serif" font-size="14.00" fill="#000000">visits</text>
</g>
</g>
</svg>